<svg xmlns="http://www.w3.org/2000/svg" xmlns:xlink="http://www.w3.org/1999/xlink" version="1.1" x="0px" y="0px" viewBox="0 0 100 100" enable-background="new 0 0 100 100" xml:space="preserve">
<rect x="11" y="25" width="23" height="67" fill="#F8FA90" />
<rect x="38" y="35" width="29" height="57" fill="#F8FA90" />
<g><path d="M69.086,53.816V35.105h-5.641v-1.408h-5.07v-7.152h-10.14v7.152h-5.07v1.408h-5.634v55.317h-2.458V24.335h-5.859v-7.143   h-5.793V5h-1.448v12.192h-5.795v7.143H10.32v68.98h24.752h2.458h23.417C63.445,94.396,66.199,95,69.086,95   c11.354,0,20.594-9.238,20.594-20.593S80.439,53.816,69.086,53.816z M17.624,18.641h10.141v5.694H17.624V18.641z M18.567,79.651   h-5.355v-9.327h5.355V79.651z M18.567,68.874h-5.355v-9.328h5.355V68.874z M18.567,58.102h-5.355v-9.327h5.355V58.102z    M18.567,36.554h-5.355v-9.327h2.962h2.394V36.554z M25.37,90.422h-5.354v-9.323h5.354V90.422z M25.37,79.651h-5.354v-9.327h5.354   V79.651z M25.37,47.329h-5.354v-9.324h5.354V47.329z M25.37,36.554h-5.354v-9.327h5.354V36.554z M32.171,79.651h-5.353v-9.327   h5.353V79.651z M32.171,68.874h-5.353v-9.328h5.353V68.874z M32.171,58.102h-5.353v-9.327h5.353V58.102z M32.171,47.329h-5.353   v-9.324h5.353V47.329z M60.828,38.004h5.357v9.324h-5.357V38.004z M66.191,48.775v5.27c-1.883,0.266-3.68,0.775-5.357,1.515v-6.784   L66.191,48.775L66.191,48.775z M59.383,48.775v7.482c-1,0.532-1.934,1.158-2.82,1.843h-2.531v-9.325H59.383z M54.867,59.55   c-0.295,0.275-0.565,0.566-0.836,0.855V59.55H54.867z M49.683,27.994h7.243v4.981h-7.243V27.994z M47.226,38.004h5.357v9.324   h-5.357V38.004z M47.226,59.55h5.357v2.594c-1.495,2.001-2.625,4.268-3.319,6.73h-2.042V59.55H47.226z M45.777,79.651h-5.352   v-9.327h5.352V79.651z M45.777,58.102h-5.352v-9.327h5.352V58.102z M47.226,90.422v-9.323h2.4c0.697,2.018,1.7,3.896,2.957,5.578   v3.745H47.226L47.226,90.422z M54.029,90.422v-2.003c0.666,0.714,1.373,1.391,2.133,2.003H54.029L54.029,90.422z M69.086,91.631   c-9.496,0-17.221-7.726-17.221-17.22c0-9.493,7.727-17.218,17.221-17.218s17.223,7.726,17.223,17.218   C86.309,83.905,78.58,91.631,69.086,91.631z" fill="#0B53A5"/></g>
<circle cx="69.1" cy="74.4" r="18.5" stroke="#7DCFB6" stroke-width="2.4" />
<circle cx="69.1" cy="74.4" r="17" stroke="#0B53A5" stroke-width="0.9" fill="#E4FDE1" />
<g transform="scale(0.12) translate(330,350)"><path d="M460.458,273.464c-6.722,0-12.494,4.056-15.011,9.853h-22.146l-14.341-25.444c-1.145-2.03-3.287-3.294-5.617-3.312  c-0.018,0-0.033,0-0.051,0c-2.311,0-4.45,1.227-5.617,3.224l-25.887,44.313l-28.596-93.39c-0.89-2.904-3.664-4.812-6.7-4.583  c-3.029,0.224-5.5,2.515-5.953,5.518l-25.758,170.883L276.265,64.701c-0.298-3.298-3.026-5.846-6.337-5.919  c-3.327-0.077-6.148,2.354-6.591,5.635l-30.573,226.937l-23.924-47.45c-1.217-2.415-3.803-3.826-6.491-3.541  c-2.689,0.284-4.923,2.202-5.61,4.817l-25.473,96.978l-28.562-182.312c-0.481-3.072-3.07-5.375-6.177-5.494  c-3.111-0.123-5.865,1.977-6.581,5.003l-29.316,123.961H53.501c-2.516-5.797-8.289-9.853-15.011-9.853  c-9.035,0-16.359,7.324-16.359,16.358c0,9.035,7.325,16.359,16.359,16.359c6.722,0,12.495-4.057,15.011-9.854h52.274  c3.016,0,5.637-2.073,6.331-5.009l22.873-96.715l28.247,180.303c0.477,3.043,3.022,5.334,6.098,5.49  c3.073,0.16,5.839-1.865,6.622-4.844l29.012-110.449l25.641,50.854c1.284,2.546,4.077,3.961,6.887,3.486  c2.812-0.473,4.988-2.721,5.369-5.547l25.654-190.412l28.174,312.021c0.296,3.279,2.995,5.82,6.286,5.918  c0.065,0.002,0.131,0.003,0.195,0.003c3.207,0,5.95-2.346,6.431-5.536l29.542-195.99l24.559,80.205  c0.756,2.47,2.902,4.258,5.469,4.557c2.572,0.3,5.065-0.95,6.369-3.181l27.659-47.346l10.641,18.88  c1.152,2.046,3.318,3.312,5.667,3.312h25.947c2.516,5.797,8.289,9.854,15.011,9.854c9.035,0,16.359-7.324,16.359-16.359  C476.817,280.788,469.493,273.464,460.458,273.464z" fill="#F79256" stroke="#7DCFB6" stroke-width="3"/></g>
</svg>
